P3
24 7
255
    0   0   0    0   0   0    0   0   0    0   0   0    0   0   0    0   0   0    0   0   0    0   0   0    0   0   0    0   0   0    0   0   0    0   0   0    0   0   0    0   0   0    0   0   0    0   0   0    0   0   0    0   0   0    0   0   0    0   0   0    0   0   0    0   0   0    0   0   0    0   0   0
    0   0   0   31  31  31   31  31  31   31  31  31   31  31  31    0   0   0    0   0   0   64   0 255   64   0 255   64   0 255   64   0 255    0   0   0    0   0   0  255  64 128  255  64 128  255  64 128  255  64 128    0   0   0    0   0   0  128 255  64  128 255  64  128 255  64  128 255  64    0   0   0
    0   0   0   31  31  31    0   0   0    0   0   0    0   0   0    0   0   0    0   0   0   64   0 255    0   0   0    0   0   0    0   0   0    0   0   0    0   0   0  255  64 128    0   0   0    0   0   0    0   0   0    0   0   0    0   0   0  128 255  64  255 255 255  255 255 255  128 255  64    0   0   0
    0   0   0   31  31  31   31  31  31   31  31  31    0   0   0    0   0   0    0   0   0   64   0 255   64   0 255   64   0 255    0   0   0    0   0   0    0   0   0  255  64 128  255  64 128  255  64 128    0   0   0    0   0   0    0   0   0  128 255  64  128 255  64  128 255  64  128 255  64    0   0   0
    0   0   0   31  31  31    0   0   0    0   0   0    0   0   0    0   0   0    0   0   0   64   0 255    0   0   0    0   0   0    0   0   0    0   0   0    0   0   0  255  64 128    0   0   0    0   0   0    0   0   0    0   0   0    0   0   0  128 255  64    0   0   0    0   0   0    0   0   0    0   0   0
    0   0   0   31  31  31    0   0   0    0   0   0    0   0   0    0   0   0    0   0   0   64   0 255   64   0 255   64   0 255   64   0 255    0   0   0    0   0   0  255  64 128  255  64 128  255  64 128  255  64 128    0   0   0    0   0   0  128 255  64    0   0   0    0   0   0    0   0   0    0   0   0
    0   0   0    0   0   0    0   0   0    0   0   0    0   0   0    0   0   0    0   0   0    0   0   0    0   0   0    0   0   0    0   0   0    0   0   0    0   0   0    0   0   0    0   0   0    0   0   0    0   0   0    0   0   0    0   0   0    0   0   0    0   0   0    0   0   0    0   0   0    0   0   0
