P3
24 7
255
   32  56  50   32  56  50   32  56  50   32  56  50   32  56  50   32  56  50   32  56  50   32  56  50   32  56  50   32  56  50   32  56  50   32  56  50   32  56  50   32  56  50   32  56  50   32  56  50   32  56  50   32  56  50   32  56  50   32  56  50   32  56  50   32  56  50   32  56  50   32  56  50
   32  56  50   31  31  31   31  31  31   31  31  31   31  31  31   32  56  50   32  56  50   64   0 255   64   0 255   64   0 255   64   0 255   32  56  50   32  56  50  255  64 128  255  64 128  255  64 128  255  64 128   32  56  50   32  56  50  128 255  64  128 255  64  128 255  64  128 255  64   32  56  50
   32  56  50   31  31  31   32  56  50   32  56  50   32  56  50   32  56  50   32  56  50   64   0 255   32  56  50   32  56  50   32  56  50   32  56  50   32  56  50  255  64 128   32  56  50   32  56  50   32  56  50   32  56  50   32  56  50  128 255  64  255 255 255  255 255 255  128 255  64   32  56  50
   32  56  50   31  31  31   31  31  31   31  31  31   32  56  50   32  56  50   32  56  50   64   0 255   64   0 255   64   0 255   32  56  50   32  56  50   32  56  50  255  64 128  255  64 128  255  64 128   32  56  50   32  56  50   32  56  50  128 255  64  128 255  64  128 255  64  128 255  64   32  56  50
   32  56  50   31  31  31   32  56  50   32  56  50   32  56  50   32  56  50   32  56  50   64   0 255   32  56  50   32  56  50   32  56  50   32  56  50   32  56  50  255  64 128   32  56  50   32  56  50   32  56  50   32  56  50   32  56  50  128 255  64   32  56  50   32  56  50   32  56  50   32  56  50
   32  56  50   31  31  31   32  56  50   32  56  50   32  56  50   32  56  50   32  56  50   64   0 255   64   0 255   64   0 255   64   0 255   32  56  50   32  56  50  255  64 128  255  64 128  255  64 128  255  64 128   32  56  50   32  56  50  128 255  64   32  56  50   32  56  50   32  56  50   32  56  50
   32  56  50   32  56  50   32  56  50   32  56  50   32  56  50   32  56  50   32  56  50   32  56  50   32  56  50   32  56  50   32  56  50   32  56  50   32  56  50   32  56  50   32  56  50   32  56  50   32  56  50   32  56  50   32  56  50   32  56  50   32  56  50   32  56  50   32  56  50   32  56  50
